# xmcd CD database file
#
# Track frame offsets:
#	150
#	26888
#	67118
#	101906
#	141235
#	160263
#	181576
#	201570
#	231309
#	257786
#	286330
#	321935
#
# Disc length: 4677 seconds
#
# Revision: 2
# Processed by: cddbd v1.5.2PL0 Copyright (c) Steve Scherf et al.
# Submitted via: jetAudio 7
#
DISCID=bc12430c
DTITLE=אברהם פריד - הלהיטים הגדולים 1
DYEAR=1900
DGENRE=חסידי
TTITLE0=אחינו
TTITLE1=אדרבה
TTITLE2=נישט גדענעט
TTITLE3=רצה השם
TTITLE4=העלה הקטן
TTITLE5=השם השם
TTITLE6=צמאה נפשי
TTITLE7=אם אשכחך
TTITLE8=למען אחיי
TTITLE9=טאטניו
TTITLE10=כי המצווה
TTITLE11=תניא
EXTD=
EXTT0=
EXTT1=
EXTT2=
EXTT3=
EXTT4=
EXTT5=
EXTT6=
EXTT7=
EXTT8=
EXTT9=
EXTT10=
EXTT11=
PLAYORDER=
